<?xml version="1.0" standalone="no"?>
<!DOCTYPE svg PUBLIC "-//W3C//DTD SVG 20010904//EN"
 "http://www.w3.org/TR/2001/REC-SVG-20010904/DTD/svg10.dtd">
<svg version="1.0" xmlns="http://www.w3.org/2000/svg"
 width="512.000000pt" height="512.000000pt" viewBox="0 0 512.000000 512.000000"
 preserveAspectRatio="xMidYMid meet">
<metadata>
Created by potrace 1.14, written by Peter Selinger 2001-2017
</metadata>
<g transform="translate(0.000000,512.000000) scale(0.100000,-0.100000)"
fill="#000000" stroke="none">
<path d="M2714 4304 c-58 -28 -83 -96 -123 -339 -11 -66 -23 -140 -26 -165 -3
-25 -8 -56 -10 -70 -8 -57 -15 -108 -20 -150 -3 -25 -8 -61 -10 -80 -3 -19 -7
-57 -10 -85 -2 -27 -7 -77 -10 -110 -3 -33 -8 -78 -10 -100 -10 -105 -18 -352
-18 -560 0 -598 45 -1085 109 -1182 24 -38 63 -57 122 -59 102 -4 161 46 165
139 1 40 -10 197 -18 262 -2 17 -7 73 -10 125 -3 52 -7 109 -10 125 -11 92
-19 371 -20 665 0 324 1 337 23 404 43 129 117 206 267 277 143 69 290 84 411
43 184 -62 282 -265 310 -640 5 -72 5 -342 0 -369 -2 -11 -7 -47 -10 -80 -9
-77 -13 -103 -32 -200 -8 -44 -17 -91 -20 -105 -3 -14 -7 -33 -10 -42 -3 -10
-8 -30 -10 -45 -3 -16 -21 -92 -40 -171 l-35 -143 23 -42 c38 -68 133 -106
208 -83 32 11 76 51 107 100 22 34 69 146 78 186 2 8 9 31 15 50 12 42 47 226
55 290 23 200 24 668 1 785 -2 11 -7 43 -10 70 -4 28 -12 70 -17 95 -6 25 -12
54 -15 65 -11 58 -61 189 -97 258 -81 153 -195 259 -334 312 -41 16 -83 30
-92 32 -146 26 -269 24 -393 -6 -99 -23 -184 -63 -275 -128 -35 -24 -63 -40
-63 -36 0 4 9 64 19 133 11 69 23 148 27 175 3 28 8 59 11 70 10 50 18 125 18
185 0 53 -4 71 -24 97 -45 60 -130 80 -197 47z"/>
<path d="M1447 3854 c-2 -3 -10 -4 -92 -19 -22 -4 -78 -25 -124 -47 -160 -76
-281 -228 -326 -408 -27 -108 -26 -279 3 -383 56 -199 160 -329 422 -532 228
-176 271 -248 235 -389 -57 -218 -354 -268 -517 -88 -28 31 -35 47 -37 87 -3
58 -36 130 -73 158 -19 14 -42 20 -85 20 -117 0 -172 -59 -178 -193 -6 -124
38 -233 131 -325 68 -68 145 -112 249 -145 92 -29 307 -37 405 -14 225 51 410
232 454 444 14 65 15 238 2 295 -4 17 -23 64 -43 105 -44 92 -158 209 -338
349 -234 181 -293 259 -300 404 -11 225 76 348 260 366 84 8 129 0 199 -35 66
-33 90 -56 138 -129 48 -73 81 -94 147 -89 107 7 153 58 152 172 -1 94 -49
178 -148 257 -114 90 -252 136 -424 139 -60 1 -111 1 -112 0z"/>
</g>
</svg>
